<svg width="33" height="32" viewBox="0 0 33 32" fill="none" xmlns="http://www.w3.org/2000/svg">
<path d="M27.2075 10.2925L20.2075 3.2925C20.1146 3.19967 20.0042 3.12605 19.8829 3.07586C19.7615 3.02568 19.6314 2.9999 19.5 3H7.5C6.96957 3 6.46086 3.21071 6.08579 3.58579C5.71071 3.96086 5.5 4.46957 5.5 5V27C5.5 27.5304 5.71071 28.0391 6.08579 28.4142C6.46086 28.7893 6.96957 29 7.5 29H25.5C26.0304 29 26.5391 28.7893 26.9142 28.4142C27.2893 28.0391 27.5 27.5304 27.5 27V11C27.5001 10.8686 27.4743 10.7385 27.4241 10.6172C27.3739 10.4958 27.3003 10.3854 27.2075 10.2925ZM20.5 6.41375L24.0863 10H20.5V6.41375ZM25.5 27H14.5V25H15.5C15.7652 25 16.0196 24.8946 16.2071 24.7071C16.3946 24.5196 16.5 24.2652 16.5 24C16.5 23.7348 16.3946 23.4804 16.2071 23.2929C16.0196 23.1054 15.7652 23 15.5 23H14.5V21H15.5C15.7652 21 16.0196 20.8946 16.2071 20.7071C16.3946 20.5196 16.5 20.2652 16.5 20C16.5 19.7348 16.3946 19.4804 16.2071 19.2929C16.0196 19.1054 15.7652 19 15.5 19H14.5V17H15.5C15.7652 17 16.0196 16.8946 16.2071 16.7071C16.3946 16.5196 16.5 16.2652 16.5 16C16.5 15.7348 16.3946 15.4804 16.2071 15.2929C16.0196 15.1054 15.7652 15 15.5 15H14.5V14C14.5 13.7348 14.3946 13.4804 14.2071 13.2929C14.0196 13.1054 13.7652 13 13.5 13C13.2348 13 12.9804 13.1054 12.7929 13.2929C12.6054 13.4804 12.5 13.7348 12.5 14V15H11.5C11.2348 15 10.9804 15.1054 10.7929 15.2929C10.6054 15.4804 10.5 15.7348 10.5 16C10.5 16.2652 10.6054 16.5196 10.7929 16.7071C10.9804 16.8946 11.2348 17 11.5 17H12.5V19H11.5C11.2348 19 10.9804 19.1054 10.7929 19.2929C10.6054 19.4804 10.5 19.7348 10.5 20C10.5 20.2652 10.6054 20.5196 10.7929 20.7071C10.9804 20.8946 11.2348 21 11.5 21H12.5V23H11.5C11.2348 23 10.9804 23.1054 10.7929 23.2929C10.6054 23.4804 10.5 23.7348 10.5 24C10.5 24.2652 10.6054 24.5196 10.7929 24.7071C10.9804 24.8946 11.2348 25 11.5 25H12.5V27H7.5V5H18.5V11C18.5 11.2652 18.6054 11.5196 18.7929 11.7071C18.9804 11.8946 19.2348 12 19.5 12H25.5V27Z" fill="black"/>
</svg>
