<svg width="33" height="33" viewBox="0 0 33 33" fill="none" xmlns="http://www.w3.org/2000/svg">
<path d="M19.5079 5.03299C19.5418 4.90608 19.6004 4.7871 19.6804 4.68285C19.7603 4.5786 19.86 4.49113 19.9738 4.42543C20.0876 4.35972 20.2131 4.31708 20.3434 4.29993C20.4736 4.28279 20.606 4.29147 20.7329 4.32549C22.5867 4.80918 24.2781 5.77829 25.6328 7.13303C26.9876 8.48777 27.9567 10.1792 28.4404 12.033C28.4744 12.1599 28.4831 12.2922 28.4659 12.4225C28.4488 12.5527 28.4061 12.6783 28.3404 12.7921C28.2747 12.9058 28.1873 13.0055 28.083 13.0855C27.9788 13.1654 27.8598 13.224 27.7329 13.258C27.6484 13.2802 27.5615 13.2915 27.4741 13.2917C27.2538 13.2917 27.0396 13.2189 26.8648 13.0847C26.6901 12.9504 26.5646 12.7622 26.5079 12.5492C26.1134 11.0359 25.3225 9.65512 24.2166 8.54927C23.1107 7.44341 21.73 6.65247 20.2166 6.25799C20.0896 6.22418 19.9705 6.16566 19.8661 6.08577C19.7617 6.00589 19.6741 5.9062 19.6083 5.79243C19.5425 5.67865 19.4997 5.55302 19.4825 5.4227C19.4653 5.29239 19.4739 5.15996 19.5079 5.03299ZM19.2166 10.258C20.9404 10.718 22.0479 11.8255 22.5079 13.5492C22.5646 13.7622 22.6901 13.9504 22.8648 14.0847C23.0396 14.2189 23.2538 14.2917 23.4741 14.2917C23.5615 14.2915 23.6484 14.2802 23.7329 14.258C23.8598 14.224 23.9788 14.1654 24.083 14.0855C24.1873 14.0055 24.2747 13.9058 24.3404 13.7921C24.4061 13.6783 24.4488 13.5527 24.4659 13.4225C24.4831 13.2922 24.4744 13.1599 24.4404 13.033C23.8004 10.638 22.1279 8.96549 19.7329 8.32549C19.606 8.29159 19.4737 8.28302 19.3435 8.30026C19.2133 8.3175 19.0877 8.36022 18.974 8.42598C18.8603 8.49173 18.7607 8.57924 18.6808 8.6835C18.601 8.78775 18.5424 8.90672 18.5085 9.03361C18.4746 9.1605 18.466 9.29283 18.4833 9.42303C18.5005 9.55323 18.5432 9.67877 18.609 9.79246C18.6747 9.90615 18.7623 10.0058 18.8665 10.0857C18.9708 10.1655 19.0897 10.2241 19.2166 10.258ZM29.4591 22.1767C29.2362 23.8705 28.4044 25.4253 27.119 26.5506C25.8336 27.6759 24.1825 28.2948 22.4741 28.2917C12.5491 28.2917 4.47413 20.2167 4.47413 10.2917C4.47107 8.58335 5.08999 6.93227 6.2153 5.64686C7.34061 4.36145 8.89534 3.52962 10.5891 3.30674C11.0174 3.25444 11.4512 3.34207 11.8256 3.55654C12.2 3.77101 12.4951 4.10082 12.6666 4.49674L15.3066 10.3905V10.4055C15.438 10.7086 15.4922 11.0394 15.4645 11.3686C15.4368 11.6977 15.328 12.0149 15.1479 12.2917C15.1254 12.3255 15.1016 12.3567 15.0766 12.388L12.4741 15.473C13.4104 17.3755 15.4004 19.348 17.3279 20.2867L20.3704 17.698C20.4003 17.6729 20.4316 17.6495 20.4641 17.628C20.7407 17.4435 21.059 17.3309 21.3901 17.3003C21.7212 17.2698 22.0547 17.3222 22.3604 17.453L22.3766 17.4605L28.2654 20.0992C28.662 20.2702 28.9926 20.565 29.2078 20.9394C29.423 21.3139 29.5111 21.748 29.4591 22.1767ZM27.4741 21.9267C27.4741 21.9267 27.4654 21.9267 27.4604 21.9267L21.5854 19.2955L18.5416 21.8842C18.5121 21.9093 18.4812 21.9326 18.4491 21.9542C18.1613 22.1462 17.8286 22.2603 17.4836 22.2853C17.1385 22.3103 16.7928 22.2453 16.4804 22.0967C14.1391 20.9655 11.8054 18.6492 10.6729 16.333C10.5229 16.0228 10.4556 15.6791 10.4775 15.3353C10.4994 14.9915 10.6098 14.6591 10.7979 14.3705C10.8191 14.3366 10.8429 14.3044 10.8691 14.2742L13.4741 11.1855L10.8491 5.31049C10.8486 5.3055 10.8486 5.30048 10.8491 5.29549C9.63695 5.45361 8.52398 6.04819 7.71865 6.96788C6.91332 7.88757 6.47086 9.06929 6.47413 10.2917C6.47876 14.5338 8.16596 18.6008 11.1655 21.6003C14.1651 24.5999 18.2321 26.2871 22.4741 26.2917C23.6958 26.2959 24.8772 25.855 25.7975 25.0514C26.7177 24.2479 27.3137 23.1366 27.4741 21.9255V21.9267Z" fill="black"/>
</svg>
