<svg width="33" height="32" viewBox="0 0 33 32" fill="none" xmlns="http://www.w3.org/2000/svg">
<path d="M16.5 3C13.9288 3 11.4154 3.76244 9.27759 5.1909C7.13975 6.61935 5.47351 8.64968 4.48957 11.0251C3.50563 13.4006 3.24818 16.0144 3.74979 18.5362C4.2514 21.0579 5.48953 23.3743 7.30761 25.1924C9.12569 27.0105 11.4421 28.2486 13.9638 28.7502C16.4856 29.2518 19.0994 28.9944 21.4749 28.0104C23.8503 27.0265 25.8806 25.3603 27.3091 23.2224C28.7376 21.0846 29.5 18.5712 29.5 16C29.4964 12.5533 28.1256 9.24882 25.6884 6.81163C23.2512 4.37445 19.9467 3.00364 16.5 3ZM16.5 27C14.3244 27 12.1977 26.3549 10.3887 25.1462C8.57979 23.9375 7.16989 22.2195 6.33733 20.2095C5.50476 18.1995 5.28692 15.9878 5.71136 13.854C6.1358 11.7202 7.18345 9.7602 8.72183 8.22183C10.2602 6.68345 12.2202 5.6358 14.354 5.21136C16.4878 4.78692 18.6995 5.00476 20.7095 5.83733C22.7195 6.66989 24.4375 8.07979 25.6462 9.88873C26.8549 11.6977 27.5 13.8244 27.5 16C27.4967 18.9164 26.3367 21.7123 24.2745 23.7745C22.2123 25.8367 19.4164 26.9967 16.5 27ZM24.5 16C24.5 16.2652 24.3946 16.5196 24.2071 16.7071C24.0196 16.8946 23.7652 17 23.5 17H16.5C16.2348 17 15.9804 16.8946 15.7929 16.7071C15.6054 16.5196 15.5 16.2652 15.5 16V9C15.5 8.73478 15.6054 8.48043 15.7929 8.29289C15.9804 8.10536 16.2348 8 16.5 8C16.7652 8 17.0196 8.10536 17.2071 8.29289C17.3946 8.48043 17.5 8.73478 17.5 9V15H23.5C23.7652 15 24.0196 15.1054 24.2071 15.2929C24.3946 15.4804 24.5 15.7348 24.5 16Z" fill="black"/>
</svg>
