<svg width="33" height="33" viewBox="0 0 33 33" fill="none" xmlns="http://www.w3.org/2000/svg">
<path d="M25.8955 14.5281C25.8955 14.7933 25.7902 15.0476 25.6026 15.2352C25.4151 15.4227 25.1607 15.5281 24.8955 15.5281H19.8955C19.6303 15.5281 19.3759 15.4227 19.1884 15.2352C19.0009 15.0476 18.8955 14.7933 18.8955 14.5281C18.8955 14.2629 19.0009 14.0085 19.1884 13.821C19.3759 13.6334 19.6303 13.5281 19.8955 13.5281H24.8955C25.1607 13.5281 25.4151 13.6334 25.6026 13.821C25.7902 14.0085 25.8955 14.2629 25.8955 14.5281ZM24.8955 17.5281H19.8955C19.6303 17.5281 19.3759 17.6334 19.1884 17.821C19.0009 18.0085 18.8955 18.2629 18.8955 18.5281C18.8955 18.7933 19.0009 19.0476 19.1884 19.2352C19.3759 19.4227 19.6303 19.5281 19.8955 19.5281H24.8955C25.1607 19.5281 25.4151 19.4227 25.6026 19.2352C25.7902 19.0476 25.8955 18.7933 25.8955 18.5281C25.8955 18.2629 25.7902 18.0085 25.6026 17.821C25.4151 17.6334 25.1607 17.5281 24.8955 17.5281ZM29.8955 7.52808V25.5281C29.8955 26.0585 29.6848 26.5672 29.3097 26.9423C28.9346 27.3174 28.4259 27.5281 27.8955 27.5281H5.89551C5.36507 27.5281 4.85637 27.3174 4.48129 26.9423C4.10622 26.5672 3.89551 26.0585 3.89551 25.5281V7.52808C3.89551 6.99764 4.10622 6.48894 4.48129 6.11386C4.85637 5.73879 5.36507 5.52808 5.89551 5.52808H27.8955C28.4259 5.52808 28.9346 5.73879 29.3097 6.11386C29.6848 6.48894 29.8955 6.99764 29.8955 7.52808ZM27.8955 25.5281V7.52808H5.89551V25.5281H27.8955ZM17.863 21.2781C17.9293 21.535 17.8908 21.8077 17.756 22.0363C17.6213 22.2649 17.4012 22.4305 17.1443 22.4968C16.8873 22.5631 16.6146 22.5247 16.386 22.3899C16.1575 22.2551 15.9918 22.035 15.9255 21.7781C15.5968 20.4956 14.293 19.5281 12.8943 19.5281C11.4955 19.5281 10.193 20.4956 9.86301 21.7781C9.7967 22.035 9.63105 22.2551 9.40249 22.3899C9.17393 22.5247 8.90119 22.5631 8.64426 22.4968C8.38733 22.4305 8.16726 22.2649 8.03247 22.0363C7.89768 21.8077 7.8592 21.535 7.92551 21.2781C8.25001 20.0703 9.01708 19.0288 10.0743 18.3606C9.51247 17.8021 9.12914 17.0894 8.97287 16.3129C8.8166 15.5363 8.89442 14.7308 9.19647 13.9985C9.49852 13.2662 10.0112 12.6401 10.6695 12.1995C11.3278 11.7589 12.1021 11.5237 12.8943 11.5237C13.6864 11.5237 14.4607 11.7589 15.119 12.1995C15.7773 12.6401 16.29 13.2662 16.592 13.9985C16.8941 14.7308 16.9719 15.5363 16.8156 16.3129C16.6594 17.0894 16.276 17.8021 15.7143 18.3606C16.7726 19.0278 17.5403 20.0696 17.8643 21.2781H17.863ZM12.8955 17.5281C13.2911 17.5281 13.6777 17.4108 14.0066 17.191C14.3355 16.9713 14.5919 16.6589 14.7433 16.2934C14.8946 15.928 14.9342 15.5259 14.8571 15.1379C14.7799 14.7499 14.5894 14.3936 14.3097 14.1139C14.03 13.8342 13.6737 13.6437 13.2857 13.5665C12.8977 13.4893 12.4956 13.5289 12.1301 13.6803C11.7647 13.8317 11.4523 14.088 11.2326 14.4169C11.0128 14.7458 10.8955 15.1325 10.8955 15.5281C10.8955 16.0585 11.1062 16.5672 11.4813 16.9423C11.8564 17.3174 12.3651 17.5281 12.8955 17.5281Z" fill="black"/>
</svg>
