<svg width="33" height="32" viewBox="0 0 33 32" fill="none" xmlns="http://www.w3.org/2000/svg">
<path d="M26.5 4H6.5C5.96957 4 5.46086 4.21071 5.08579 4.58579C4.71071 4.96086 4.5 5.46957 4.5 6V26C4.5 26.5304 4.71071 27.0391 5.08579 27.4142C5.46086 27.7893 5.96957 28 6.5 28H26.5C27.0304 28 27.5391 27.7893 27.9142 27.4142C28.2893 27.0391 28.5 26.5304 28.5 26V6C28.5 5.46957 28.2893 4.96086 27.9142 4.58579C27.5391 4.21071 27.0304 4 26.5 4ZM6.5 6H26.5V15.6725L23.4137 12.585C23.0387 12.2102 22.5302 11.9997 22 11.9997C21.4698 11.9997 20.9613 12.2102 20.5863 12.585L7.17125 26H6.5V6ZM26.5 26H10L22 14L26.5 18.5V26ZM12.5 15C13.0933 15 13.6734 14.8241 14.1667 14.4944C14.6601 14.1648 15.0446 13.6962 15.2716 13.1481C15.4987 12.5999 15.5581 11.9967 15.4424 11.4147C15.3266 10.8328 15.0409 10.2982 14.6213 9.87868C14.2018 9.45912 13.6672 9.1734 13.0853 9.05764C12.5033 8.94189 11.9001 9.0013 11.3519 9.22836C10.8038 9.45542 10.3352 9.83994 10.0056 10.3333C9.67595 10.8266 9.5 11.4067 9.5 12C9.5 12.7956 9.81607 13.5587 10.3787 14.1213C10.9413 14.6839 11.7044 15 12.5 15ZM12.5 11C12.6978 11 12.8911 11.0586 13.0556 11.1685C13.22 11.2784 13.3482 11.4346 13.4239 11.6173C13.4996 11.8 13.5194 12.0011 13.4808 12.1951C13.4422 12.3891 13.347 12.5673 13.2071 12.7071C13.0673 12.847 12.8891 12.9422 12.6951 12.9808C12.5011 13.0194 12.3 12.9996 12.1173 12.9239C11.9346 12.8482 11.7784 12.72 11.6685 12.5556C11.5586 12.3911 11.5 12.1978 11.5 12C11.5 11.7348 11.6054 11.4804 11.7929 11.2929C11.9804 11.1054 12.2348 11 12.5 11Z" fill="black"/>
</svg>
