<svg width="33" height="33" viewBox="0 0 33 33" fill="none" xmlns="http://www.w3.org/2000/svg">
<path d="M16.8182 3.65918C14.247 3.65918 11.7336 4.42162 9.59577 5.85007C7.45793 7.27853 5.79169 9.30886 4.80775 11.6843C3.82381 14.0597 3.56637 16.6736 4.06797 19.1954C4.56958 21.7171 5.80771 24.0335 7.62579 25.8516C9.44388 27.6697 11.7603 28.9078 14.282 29.4094C16.8038 29.911 19.4176 29.6536 21.7931 28.6696C24.1685 27.6857 26.1988 26.0194 27.6273 23.8816C29.0557 21.7438 29.8182 19.2303 29.8182 16.6592C29.8145 13.2125 28.4437 9.908 26.0065 7.47081C23.5694 5.03363 20.2649 3.66282 16.8182 3.65918ZM13.5219 21.6592H20.1144C19.4432 23.9517 18.3182 26.0179 16.8182 27.6454C15.3182 26.0179 14.1932 23.9517 13.5219 21.6592ZM13.0682 19.6592C12.7365 17.6729 12.7365 15.6454 13.0682 13.6592H20.5682C20.8998 15.6454 20.8998 17.6729 20.5682 19.6592H13.0682ZM5.81818 16.6592C5.81731 15.6447 5.9574 14.6351 6.23443 13.6592H11.0419C10.7436 15.6481 10.7436 17.6703 11.0419 19.6592H6.23443C5.9574 18.6833 5.81731 17.6736 5.81818 16.6592ZM20.1144 11.6592H13.5219C14.1932 9.36668 15.3182 7.30043 16.8182 5.67293C18.3182 7.30043 19.4432 9.36668 20.1144 11.6592ZM22.5944 13.6592H27.4019C27.9569 15.6207 27.9569 17.6977 27.4019 19.6592H22.5944C22.8928 17.6703 22.8928 15.6481 22.5944 13.6592ZM26.6144 11.6592H22.1857C21.6754 9.65107 20.8183 7.74748 19.6532 6.03418C21.1417 6.43421 22.5301 7.14133 23.729 8.11009C24.9279 9.07885 25.9108 10.2878 26.6144 11.6592ZM13.9832 6.03418C12.818 7.74748 11.961 9.65107 11.4507 11.6592H7.02193C7.72559 10.2878 8.70847 9.07885 9.90736 8.11009C11.1063 7.14133 12.4946 6.43421 13.9832 6.03418ZM7.02193 21.6592H11.4507C11.961 23.6673 12.818 25.5709 13.9832 27.2842C12.4946 26.8842 11.1063 26.177 9.90736 25.2083C8.70847 24.2395 7.72559 23.0306 7.02193 21.6592ZM19.6532 27.2842C20.8183 25.5709 21.6754 23.6673 22.1857 21.6592H26.6144C25.9108 23.0306 24.9279 24.2395 23.729 25.2083C22.5301 26.177 21.1417 26.8842 19.6532 27.2842Z" fill="black"/>
</svg>
