<svg width="33" height="33" viewBox="0 0 33 33" fill="none" xmlns="http://www.w3.org/2000/svg">
<path d="M22.8182 2.65918H10.8182C10.0225 2.65918 9.25947 2.97525 8.69686 3.53786C8.13425 4.10047 7.81818 4.86353 7.81818 5.65918V27.6592C7.81818 28.4548 8.13425 29.2179 8.69686 29.7805C9.25947 30.3431 10.0225 30.6592 10.8182 30.6592H22.8182C23.6138 30.6592 24.3769 30.3431 24.9395 29.7805C25.5021 29.2179 25.8182 28.4548 25.8182 27.6592V5.65918C25.8182 4.86353 25.5021 4.10047 24.9395 3.53786C24.3769 2.97525 23.6138 2.65918 22.8182 2.65918ZM9.81818 8.65918H23.8182V24.6592H9.81818V8.65918ZM10.8182 4.65918H22.8182C23.0834 4.65918 23.3377 4.76454 23.5253 4.95207C23.7128 5.13961 23.8182 5.39396 23.8182 5.65918V6.65918H9.81818V5.65918C9.81818 5.39396 9.92353 5.13961 10.1111 4.95207C10.2986 4.76454 10.553 4.65918 10.8182 4.65918ZM22.8182 28.6592H10.8182C10.553 28.6592 10.2986 28.5538 10.1111 28.3663C9.92353 28.1788 9.81818 27.9244 9.81818 27.6592V26.6592H23.8182V27.6592C23.8182 27.9244 23.7128 28.1788 23.5253 28.3663C23.3377 28.5538 23.0834 28.6592 22.8182 28.6592Z" fill="black"/>
</svg>
