<svg width="33" height="33" viewBox="0 0 33 33" fill="none" xmlns="http://www.w3.org/2000/svg">
<path d="M28.8955 16.5281C28.5548 16.528 28.2165 16.5863 27.8955 16.7006V16.5281C27.8955 11.3056 24.0118 8.72058 21.1755 6.83308C19.4155 5.66058 17.8955 4.65308 17.8955 3.52808C17.8955 3.26286 17.7902 3.00851 17.6026 2.82097C17.4151 2.63343 17.1607 2.52808 16.8955 2.52808C16.6303 2.52808 16.3759 2.63343 16.1884 2.82097C16.0009 3.00851 15.8955 3.26286 15.8955 3.52808C15.8955 4.65308 14.3755 5.66058 12.6155 6.83308C9.77926 8.72058 5.89551 11.3056 5.89551 16.5281V16.7006C5.44309 16.5406 4.9589 16.4915 4.48358 16.5574C4.00826 16.6233 3.55569 16.8023 3.16384 17.0792C2.77199 17.3562 2.4523 17.7232 2.23161 18.1493C2.01091 18.5754 1.89566 19.0482 1.89551 19.5281V26.5281C1.89551 26.7933 2.00086 27.0476 2.1884 27.2352C2.37594 27.4227 2.63029 27.5281 2.89551 27.5281H10.8955C11.1607 27.5281 11.4151 27.4227 11.6026 27.2352C11.7902 27.0476 11.8955 26.7933 11.8955 26.5281V22.5281C11.8955 22.2629 12.0009 22.0085 12.1884 21.821C12.3759 21.6334 12.6303 21.5281 12.8955 21.5281C13.1607 21.5281 13.4151 21.6334 13.6026 21.821C13.7902 22.0085 13.8955 22.2629 13.8955 22.5281V26.5281C13.8955 26.7933 14.0009 27.0476 14.1884 27.2352C14.3759 27.4227 14.6303 27.5281 14.8955 27.5281H18.8955C19.1607 27.5281 19.4151 27.4227 19.6026 27.2352C19.7902 27.0476 19.8955 26.7933 19.8955 26.5281V22.5281C19.8955 22.2629 20.0009 22.0085 20.1884 21.821C20.3759 21.6334 20.6303 21.5281 20.8955 21.5281C21.1607 21.5281 21.4151 21.6334 21.6026 21.821C21.7902 22.0085 21.8955 22.2629 21.8955 22.5281V26.5281C21.8955 26.7933 22.0009 27.0476 22.1884 27.2352C22.3759 27.4227 22.6303 27.5281 22.8955 27.5281H30.8955C31.1607 27.5281 31.4151 27.4227 31.6026 27.2352C31.7902 27.0476 31.8955 26.7933 31.8955 26.5281V19.5281C31.8955 18.7324 31.5794 17.9694 31.0168 17.4068C30.4542 16.8441 29.6912 16.5281 28.8955 16.5281ZM13.7243 8.49808C14.933 7.69308 16.0993 6.91308 16.8955 5.99808C17.688 6.91683 18.858 7.69683 20.0668 8.49808C22.5668 10.1631 25.3768 12.0343 25.8305 15.5281H7.95551C8.41426 12.0343 11.2205 10.1631 13.7243 8.49808ZM3.89551 19.5281C3.89551 19.2629 4.00086 19.0085 4.1884 18.821C4.37594 18.6334 4.63029 18.5281 4.89551 18.5281C5.16072 18.5281 5.41508 18.6334 5.60261 18.821C5.79015 19.0085 5.89551 19.2629 5.89551 19.5281V25.5281H3.89551V19.5281ZM20.8955 19.5281C20.0999 19.5281 19.3368 19.8441 18.7742 20.4068C18.2116 20.9694 17.8955 21.7324 17.8955 22.5281V25.5281H15.8955V22.5281C15.8955 21.7324 15.5794 20.9694 15.0168 20.4068C14.4542 19.8441 13.6912 19.5281 12.8955 19.5281C12.0999 19.5281 11.3368 19.8441 10.7742 20.4068C10.2116 20.9694 9.89551 21.7324 9.89551 22.5281V25.5281H7.89551V17.5281H25.8955V25.5281H23.8955V22.5281C23.8955 21.7324 23.5794 20.9694 23.0168 20.4068C22.4542 19.8441 21.6912 19.5281 20.8955 19.5281ZM29.8955 25.5281H27.8955V19.5281C27.8955 19.2629 28.0009 19.0085 28.1884 18.821C28.3759 18.6334 28.6303 18.5281 28.8955 18.5281C29.1607 18.5281 29.4151 18.6334 29.6026 18.821C29.7902 19.0085 29.8955 19.2629 29.8955 19.5281V25.5281Z" fill="black"/>
</svg>
