<svg width="33" height="32" viewBox="0 0 33 32" fill="none" xmlns="http://www.w3.org/2000/svg">
<path d="M19.9387 3.10105C19.7706 3.0191 19.5828 2.98597 19.3968 3.00542C19.2107 3.02486 19.0338 3.0961 18.8862 3.21105L10.1562 9.9998H4.5C3.96957 9.9998 3.46086 10.2105 3.08579 10.5856C2.71071 10.9607 2.5 11.4694 2.5 11.9998V19.9998C2.5 20.5302 2.71071 21.0389 3.08579 21.414C3.46086 21.7891 3.96957 21.9998 4.5 21.9998H10.1562L18.8862 28.7885C19.034 28.9034 19.211 28.9745 19.3971 28.9937C19.5832 29.013 19.771 28.9796 19.9391 28.8975C20.1072 28.8153 20.2489 28.6876 20.3481 28.5289C20.4472 28.3702 20.4999 28.1869 20.5 27.9998V3.9998C20.5 3.81246 20.4474 3.62888 20.3482 3.46998C20.249 3.31108 20.1071 3.18324 19.9387 3.10105ZM4.5 11.9998H9.5V19.9998H4.5V11.9998ZM18.5 25.9548L11.5 20.511V11.4885L18.5 6.0448V25.9548ZM25.25 12.6948C26.0543 13.6079 26.4981 14.783 26.4981 15.9998C26.4981 17.2166 26.0543 18.3917 25.25 19.3048C25.0733 19.4989 24.8274 19.6158 24.5653 19.6302C24.3032 19.6446 24.046 19.5554 23.8491 19.3818C23.6522 19.2082 23.5315 18.9642 23.5129 18.7024C23.4944 18.4405 23.5795 18.1819 23.75 17.9823C24.2323 17.4345 24.4984 16.7297 24.4984 15.9998C24.4984 15.2699 24.2323 14.5651 23.75 14.0173C23.5795 13.8177 23.4944 13.5591 23.5129 13.2972C23.5315 13.0354 23.6522 12.7914 23.8491 12.6178C24.046 12.4442 24.3032 12.355 24.5653 12.3694C24.8274 12.3838 25.0733 12.5007 25.25 12.6948ZM31.5 15.9998C31.5014 18.4601 30.5947 20.8343 28.9538 22.6673C28.7756 22.86 28.5288 22.975 28.2667 22.9875C28.0045 22.9999 27.748 22.9087 27.5524 22.7337C27.3568 22.5586 27.2379 22.3137 27.2214 22.0518C27.2048 21.7898 27.2918 21.5319 27.4638 21.3335C28.7755 19.8668 29.5007 17.9681 29.5007 16.0004C29.5007 14.0327 28.7755 12.134 27.4638 10.6673C27.3737 10.5699 27.304 10.4555 27.2586 10.3309C27.2131 10.2062 27.193 10.0738 27.1993 9.94127C27.2055 9.80876 27.2381 9.67882 27.2951 9.55902C27.3521 9.43922 27.4323 9.33196 27.5312 9.24348C27.63 9.155 27.7455 9.08708 27.8708 9.04366C27.9962 9.00024 28.1289 8.98219 28.2613 8.99058C28.3937 8.99896 28.5231 9.0336 28.642 9.09248C28.7609 9.15136 28.8669 9.23331 28.9538 9.33355C30.5952 11.1658 31.502 13.5398 31.5 15.9998Z" fill="black"/>
</svg>
