<svg width="33" height="33" viewBox="0 0 33 33" fill="none" xmlns="http://www.w3.org/2000/svg">
<path d="M29.3132 17.4091C29.1007 19.8791 28.1872 22.237 26.6802 24.2055C25.1732 26.1739 23.1353 27.671 20.8064 28.5206C18.4774 29.3702 15.9543 29.537 13.5337 29.0013C11.1132 28.4656 8.89604 27.2497 7.14306 25.4968C5.39008 23.7438 4.17422 21.5266 3.63854 19.1061C3.10285 16.6856 3.26961 14.1624 4.11921 11.8334C4.96881 9.50447 6.4659 7.4666 8.43435 5.95959C10.4028 4.45257 12.7607 3.5391 15.2307 3.32664C15.362 3.31581 15.4942 3.33094 15.6196 3.37119C15.7451 3.41143 15.8614 3.476 15.9619 3.5612C16.0625 3.64639 16.1452 3.75056 16.2055 3.86774C16.2657 3.98492 16.3023 4.11282 16.3132 4.24414C16.324 4.37546 16.3089 4.50763 16.2686 4.6331C16.2284 4.75857 16.1638 4.87489 16.0786 4.97541C15.9934 5.07593 15.8893 5.15868 15.7721 5.21895C15.6549 5.27921 15.527 5.31581 15.3957 5.32664C13.3052 5.50626 11.3094 6.27922 9.64331 7.55459C7.97719 8.82996 6.71 10.5547 5.99083 12.5258C5.27166 14.4969 5.13044 16.6324 5.58378 18.6811C6.03712 20.7298 7.06616 22.6063 8.54983 24.09C10.0335 25.5737 11.9101 26.6027 13.9587 27.056C16.0074 27.5094 18.1429 27.3682 20.114 26.649C22.0851 25.9298 23.8099 24.6626 25.0852 22.9965C26.3606 21.3304 27.1336 19.3347 27.3132 17.2441C27.3351 16.9789 27.4614 16.7333 27.6644 16.5612C27.8674 16.3891 28.1305 16.3048 28.3957 16.3266C28.6609 16.3485 28.9066 16.4749 29.0786 16.6779C29.2507 16.8809 29.3351 17.1439 29.3132 17.4091ZM15.3132 9.32664V16.3266C15.3132 16.5919 15.4185 16.8462 15.6061 17.0337C15.7936 17.2213 16.048 17.3266 16.3132 17.3266H23.3132C23.5784 17.3266 23.8327 17.2213 24.0203 17.0337C24.2078 16.8462 24.3132 16.5919 24.3132 16.3266C24.3132 16.0614 24.2078 15.8071 24.0203 15.6195C23.8327 15.432 23.5784 15.3266 23.3132 15.3266H17.3132V9.32664C17.3132 9.06142 17.2078 8.80707 17.0203 8.61953C16.8327 8.432 16.5784 8.32664 16.3132 8.32664C16.048 8.32664 15.7936 8.432 15.6061 8.61953C15.4185 8.80707 15.3132 9.06142 15.3132 9.32664ZM20.3132 6.32664C20.6098 6.32664 20.8999 6.23867 21.1465 6.07384C21.3932 5.90902 21.5855 5.67475 21.699 5.40066C21.8125 5.12658 21.8422 4.82498 21.7844 4.534C21.7265 4.24303 21.5836 3.97576 21.3738 3.76598C21.1641 3.5562 20.8968 3.41334 20.6058 3.35546C20.3148 3.29758 20.0132 3.32729 19.7392 3.44082C19.4651 3.55435 19.2308 3.74661 19.066 3.99328C18.9011 4.23996 18.8132 4.52997 18.8132 4.82664C18.8132 5.22446 18.9712 5.606 19.2525 5.8873C19.5338 6.1686 19.9154 6.32664 20.3132 6.32664ZM24.8132 9.32664C25.1098 9.32664 25.3999 9.23867 25.6465 9.07384C25.8932 8.90902 26.0855 8.67475 26.199 8.40066C26.3125 8.12658 26.3422 7.82498 26.2844 7.534C26.2265 7.24303 26.0836 6.97576 25.8738 6.76598C25.6641 6.5562 25.3968 6.41334 25.1058 6.35546C24.8148 6.29758 24.5132 6.32729 24.2392 6.44082C23.9651 6.55435 23.7308 6.74661 23.566 6.99328C23.4011 7.23996 23.3132 7.52997 23.3132 7.82664C23.3132 8.22446 23.4712 8.606 23.7525 8.8873C24.0338 9.1686 24.4154 9.32664 24.8132 9.32664ZM27.8132 13.8266C28.1098 13.8266 28.3999 13.7387 28.6465 13.5738C28.8932 13.409 29.0855 13.1748 29.199 12.9007C29.3125 12.6266 29.3422 12.325 29.2844 12.034C29.2265 11.743 29.0836 11.4758 28.8738 11.266C28.6641 11.0562 28.3968 10.9133 28.1058 10.8555C27.8148 10.7976 27.5132 10.8273 27.2392 10.9408C26.9651 11.0544 26.7308 11.2466 26.566 11.4933C26.4011 11.74 26.3132 12.03 26.3132 12.3266C26.3132 12.7245 26.4712 13.106 26.7525 13.3873C27.0338 13.6686 27.4154 13.8266 27.8132 13.8266Z" fill="black"/>
</svg>
