<svg width="33" height="32" viewBox="0 0 33 32" fill="none" xmlns="http://www.w3.org/2000/svg">
<path d="M21.055 15.1675L15.055 11.1675C14.9044 11.067 14.7293 11.0093 14.5484 11.0005C14.3675 10.9918 14.1877 11.0323 14.028 11.1177C13.8684 11.2032 13.7349 11.3304 13.6419 11.4858C13.5489 11.6412 13.4999 11.8189 13.5 12V20C13.4999 20.1811 13.5489 20.3588 13.6419 20.5142C13.7349 20.6696 13.8684 20.7968 14.028 20.8823C14.1877 20.9677 14.3675 21.0082 14.5484 20.9995C14.7293 20.9907 14.9044 20.933 15.055 20.8325L21.055 16.8325C21.1922 16.7412 21.3047 16.6175 21.3825 16.4722C21.4603 16.327 21.501 16.1648 21.501 16C21.501 15.8352 21.4603 15.673 21.3825 15.5278C21.3047 15.3826 21.1922 15.2588 21.055 15.1675ZM15.5 18.1313V13.875L18.6975 16L15.5 18.1313ZM29.7913 8.69C29.6735 8.22919 29.4478 7.80298 29.1329 7.44654C28.818 7.09011 28.4228 6.81366 27.98 6.64C23.695 4.985 16.875 5 16.5 5C16.125 5 9.305 4.985 5.02 6.64C4.5772 6.81366 4.18204 7.09011 3.86712 7.44654C3.55219 7.80298 3.32653 8.22919 3.20875 8.69C2.885 9.9375 2.5 12.2175 2.5 16C2.5 19.7825 2.885 22.0625 3.20875 23.31C3.32636 23.771 3.55194 24.1975 3.86687 24.5542C4.18181 24.9108 4.57706 25.1875 5.02 25.3613C9.125 26.945 15.55 27 16.4175 27H16.5825C17.45 27 23.8787 26.945 27.98 25.3613C28.4229 25.1875 28.8182 24.9108 29.1331 24.5542C29.4481 24.1975 29.6736 23.771 29.7913 23.31C30.115 22.06 30.5 19.7825 30.5 16C30.5 12.2175 30.115 9.9375 29.7913 8.69ZM27.855 22.815C27.8169 22.9684 27.743 23.1105 27.6394 23.2298C27.5357 23.3491 27.4053 23.4421 27.2588 23.5013C23.3025 25.0288 16.5738 25.0013 16.5088 25.0013H16.5C16.4325 25.0013 9.70875 25.0263 5.75 23.5013C5.60346 23.4421 5.47303 23.3491 5.36938 23.2298C5.26574 23.1105 5.19185 22.9684 5.15375 22.815C4.85 21.6738 4.5 19.5713 4.5 16C4.5 12.4288 4.85 10.3263 5.145 9.19125C5.18239 9.03698 5.25596 8.89382 5.35965 8.77362C5.46333 8.65342 5.59413 8.55963 5.74125 8.5C9.55625 7.02625 15.9487 7 16.4725 7H16.5063C16.5738 7 23.3038 6.9775 27.2563 8.5C27.4028 8.55915 27.5332 8.65217 27.6369 8.77146C27.7405 8.89074 27.8144 9.03289 27.8525 9.18625C28.15 10.3263 28.5 12.4288 28.5 16C28.5 19.5713 28.15 21.6738 27.855 22.8088V22.815Z" fill="black"/>
</svg>
