<svg width="33" height="32" viewBox="0 0 33 32" fill="none" xmlns="http://www.w3.org/2000/svg">
<path d="M26.5 4H6.5C5.96957 4 5.46086 4.21071 5.08579 4.58579C4.71071 4.96086 4.5 5.46957 4.5 6V26C4.5 26.5304 4.71071 27.0391 5.08579 27.4142C5.46086 27.7893 5.96957 28 6.5 28H26.5C27.0304 28 27.5391 27.7893 27.9142 27.4142C28.2893 27.0391 28.5 26.5304 28.5 26V6C28.5 5.46957 28.2893 4.96086 27.9142 4.58579C27.5391 4.21071 27.0304 4 26.5 4ZM10.5 26H6.5V6H10.5V26ZM22.5 19H14.5C14.2348 19 13.9804 18.8946 13.7929 18.7071C13.6054 18.5196 13.5 18.2652 13.5 18C13.5 17.7348 13.6054 17.4804 13.7929 17.2929C13.9804 17.1054 14.2348 17 14.5 17H22.5C22.7652 17 23.0196 17.1054 23.2071 17.2929C23.3946 17.4804 23.5 17.7348 23.5 18C23.5 18.2652 23.3946 18.5196 23.2071 18.7071C23.0196 18.8946 22.7652 19 22.5 19ZM22.5 15H14.5C14.2348 15 13.9804 14.8946 13.7929 14.7071C13.6054 14.5196 13.5 14.2652 13.5 14C13.5 13.7348 13.6054 13.4804 13.7929 13.2929C13.9804 13.1054 14.2348 13 14.5 13H22.5C22.7652 13 23.0196 13.1054 23.2071 13.2929C23.3946 13.4804 23.5 13.7348 23.5 14C23.5 14.2652 23.3946 14.5196 23.2071 14.7071C23.0196 14.8946 22.7652 15 22.5 15Z" fill="black"/>
</svg>
