<svg width="33" height="32" viewBox="0 0 33 32" fill="none" xmlns="http://www.w3.org/2000/svg">
<path d="M30.5 20V23C30.5 23.5304 30.2893 24.0391 29.9142 24.4142C29.5391 24.7893 29.0304 25 28.5 25H14.9913C14.899 25.0001 14.8086 24.9746 14.7299 24.9265C14.6512 24.8784 14.5874 24.8094 14.5455 24.7272C14.5036 24.6451 14.4852 24.5529 14.4924 24.461C14.4996 24.3691 14.5321 24.2809 14.5863 24.2063L22.2838 13.625C22.4433 13.4131 22.5146 13.1476 22.4827 12.8843C22.4507 12.6209 22.3181 12.3802 22.1125 12.2125C22.0067 12.1304 21.8856 12.0705 21.7562 12.0361C21.6268 12.0017 21.4918 11.9937 21.3593 12.0125C21.2268 12.0312 21.0993 12.0764 20.9846 12.1454C20.8698 12.2143 20.7701 12.3056 20.6912 12.4138L11.6912 24.7963C11.6441 24.8604 11.5823 24.9124 11.5109 24.9478C11.4396 24.9833 11.3609 25.0011 11.2812 25H4.5C3.96957 25 3.46086 24.7893 3.08579 24.4142C2.71071 24.0391 2.5 23.5304 2.5 23V20.1413C2.5 19.9175 2.5 19.695 2.51625 19.475C2.52267 19.3468 2.57817 19.2259 2.67125 19.1375C2.76433 19.0491 2.88786 18.9998 3.01625 19H6.5C6.63709 19.0003 6.77277 18.9724 6.89863 18.9181C7.02448 18.8637 7.13782 18.7841 7.2316 18.6841C7.32538 18.5841 7.3976 18.4659 7.44377 18.3368C7.48994 18.2077 7.50908 18.0705 7.5 17.9338C7.47788 17.6762 7.35889 17.4366 7.16704 17.2633C6.97519 17.09 6.72475 16.9959 6.46625 17H3.49C3.41372 16.9999 3.33847 16.9824 3.27 16.9488C3.20153 16.9152 3.14166 16.8664 3.09497 16.806C3.04829 16.7457 3.01602 16.6755 3.00064 16.6008C2.98526 16.5261 2.98718 16.4489 3.00625 16.375C4.50625 10.895 9.21375 6.73375 14.9462 6.09C15.0163 6.08243 15.0871 6.08974 15.1541 6.11145C15.2211 6.13316 15.2828 6.16879 15.3351 6.216C15.3874 6.2632 15.4291 6.32093 15.4575 6.38538C15.4859 6.44983 15.5004 6.51956 15.5 6.59V10C15.4997 10.1371 15.5276 10.2728 15.5819 10.3986C15.6363 10.5245 15.7159 10.6378 15.8159 10.7316C15.9159 10.8254 16.0341 10.8976 16.1632 10.9438C16.2923 10.9899 16.4295 11.0091 16.5662 11C16.8238 10.9779 17.0634 10.8589 17.2367 10.667C17.41 10.4752 17.5041 10.2248 17.5 9.96625V6.58375C17.4996 6.51331 17.5141 6.44358 17.5425 6.37913C17.5709 6.31468 17.6126 6.25695 17.6649 6.20975C17.7172 6.16254 17.7789 6.12691 17.8459 6.1052C17.9129 6.08349 17.9837 6.07618 18.0537 6.08375C20.8524 6.39824 23.4915 7.54814 25.6274 9.38371C27.7633 11.2193 29.297 13.6555 30.0287 16.375C30.0478 16.449 30.0497 16.5263 30.0343 16.6011C30.0189 16.6759 29.9865 16.7462 29.9396 16.8065C29.8928 16.8669 29.8328 16.9157 29.7642 16.9492C29.6955 16.9828 29.6201 17.0001 29.5438 17H26.5338C26.2757 16.9965 26.0259 17.0909 25.8345 17.2641C25.6432 17.4374 25.5246 17.6766 25.5025 17.9338C25.4934 18.0705 25.5126 18.2077 25.5587 18.3368C25.6049 18.4659 25.6771 18.5841 25.7709 18.6841C25.8647 18.7841 25.978 18.8637 26.1039 18.9181C26.2297 18.9724 26.3654 19.0003 26.5025 19H29.9925C30.1221 18.9999 30.2467 19.0502 30.34 19.1402C30.4333 19.2302 30.488 19.3529 30.4925 19.4825C30.5 19.6538 30.5 19.8263 30.5 20Z" fill="black"/>
</svg>
