<svg width="33" height="32" viewBox="0 0 33 32" fill="none" xmlns="http://www.w3.org/2000/svg">
<path d="M7.08625 12.4138C6.90048 12.228 6.75313 12.0075 6.65259 11.7648C6.55205 11.5222 6.5003 11.2621 6.5003 10.9994C6.5003 10.7367 6.55205 10.4766 6.65259 10.2339C6.75313 9.99122 6.90048 9.77072 7.08625 9.585L15.0863 1.585C15.4614 1.20989 15.9701 0.999147 16.5006 0.999147C17.0311 0.999147 17.5399 1.20989 17.915 1.585C18.2901 1.96012 18.5009 2.46888 18.5009 2.99938C18.5009 3.52987 18.2901 4.03864 17.915 4.41375L9.915 12.4138C9.72928 12.5995 9.50878 12.7469 9.2661 12.8474C9.02342 12.948 8.76331 12.9997 8.50063 12.9997C8.23794 12.9997 7.97783 12.948 7.73515 12.8474C7.49247 12.7469 7.27197 12.5995 7.08625 12.4138ZM30.915 14.585C30.7293 14.3992 30.5088 14.2519 30.2661 14.1513C30.0234 14.0508 29.7633 13.9991 29.5006 13.9991C29.2379 13.9991 28.9778 14.0508 28.7352 14.1513C28.4925 14.2519 28.272 14.3992 28.0863 14.585L20.0863 22.585C19.7115 22.96 19.5009 23.4685 19.5009 23.9988C19.5009 24.529 19.7115 25.0375 20.0863 25.4125C20.272 25.5983 20.4925 25.7456 20.7352 25.8462C20.9778 25.9467 21.2379 25.9984 21.5006 25.9984C21.7633 25.9984 22.0234 25.9467 22.2661 25.8462C22.5088 25.7456 22.7293 25.5983 22.915 25.4125L30.915 17.4125C31.2898 17.0375 31.5003 16.529 31.5003 15.9988C31.5003 15.4685 31.2898 14.96 30.915 14.585ZM26.2075 12.2925L20.2075 6.2925C20.02 6.10511 19.7657 5.99984 19.5006 5.99984C19.2355 5.99984 18.9813 6.10511 18.7938 6.2925L11.7938 13.2925C11.6064 13.48 11.5011 13.7343 11.5011 13.9994C11.5011 14.2645 11.6064 14.5187 11.7938 14.7063L13.375 16.2925L4.08625 25.5863C3.72701 25.9644 3.52969 26.4679 3.53637 26.9894C3.54305 27.5109 3.75319 28.0092 4.12199 28.378C4.4908 28.7468 4.98908 28.957 5.5106 28.9636C6.03213 28.9703 6.53563 28.773 6.91375 28.4137L16.2075 19.125L17.7938 20.7113C17.9813 20.8986 18.2355 21.0039 18.5006 21.0039C18.7657 21.0039 19.02 20.8986 19.2075 20.7113L26.2075 13.7113C26.301 13.6183 26.3753 13.5078 26.4259 13.386C26.4766 13.2643 26.5027 13.1337 26.5027 13.0019C26.5027 12.87 26.4766 12.7395 26.4259 12.6177C26.3753 12.496 26.301 12.3854 26.2075 12.2925Z" fill="black"/>
</svg>
