<svg width="33" height="32" viewBox="0 0 33 32" fill="none" xmlns="http://www.w3.org/2000/svg">
<path d="M16.5 3C13.9288 3 11.4154 3.76244 9.27759 5.1909C7.13975 6.61935 5.4735 8.64968 4.48956 11.0251C3.50563 13.4006 3.24818 16.0144 3.74979 18.5362C4.2514 21.0579 5.48953 23.3743 7.30761 25.1924C9.12569 27.0105 11.4421 28.2486 13.9638 28.7502C16.4856 29.2518 19.0994 28.9944 21.4749 28.0104C23.8503 27.0265 25.8806 25.3603 27.3091 23.2224C28.7376 21.0846 29.5 18.5712 29.5 16C29.4964 12.5533 28.1256 9.24882 25.6884 6.81163C23.2512 4.37445 19.9467 3.00364 16.5 3ZM16 9C16.2967 9 16.5867 9.08797 16.8334 9.2528C17.08 9.41762 17.2723 9.65189 17.3858 9.92597C17.4993 10.2001 17.5291 10.5017 17.4712 10.7926C17.4133 11.0836 17.2704 11.3509 17.0607 11.5607C16.8509 11.7704 16.5836 11.9133 16.2926 11.9712C16.0017 12.0291 15.7001 11.9994 15.426 11.8858C15.1519 11.7723 14.9176 11.58 14.7528 11.3334C14.588 11.0867 14.5 10.7967 14.5 10.5C14.5 10.1022 14.658 9.72064 14.9393 9.43934C15.2206 9.15804 15.6022 9 16 9ZM17.5 23C16.9696 23 16.4609 22.7893 16.0858 22.4142C15.7107 22.0391 15.5 21.5304 15.5 21V16C15.2348 16 14.9804 15.8946 14.7929 15.7071C14.6054 15.5196 14.5 15.2652 14.5 15C14.5 14.7348 14.6054 14.4804 14.7929 14.2929C14.9804 14.1054 15.2348 14 15.5 14C16.0304 14 16.5391 14.2107 16.9142 14.5858C17.2893 14.9609 17.5 15.4696 17.5 16V21C17.7652 21 18.0196 21.1054 18.2071 21.2929C18.3946 21.4804 18.5 21.7348 18.5 22C18.5 22.2652 18.3946 22.5196 18.2071 22.7071C18.0196 22.8946 17.7652 23 17.5 23Z" fill="black"/>
</svg>
