<svg width="33" height="32" viewBox="0 0 33 32" fill="none" xmlns="http://www.w3.org/2000/svg">
<path d="M27.5 5H5.5C4.96957 5 4.46086 5.21071 4.08579 5.58579C3.71071 5.96086 3.5 6.46957 3.5 7V23C3.5 23.5304 3.71071 24.0391 4.08579 24.4142C4.46086 24.7893 4.96957 25 5.5 25L12.9375 25.0075L14.785 28.0287C14.9623 28.3244 15.213 28.5693 15.5127 28.7396C15.8125 28.9098 16.1512 28.9997 16.496 29.0004C16.8408 29.0012 17.1799 28.9128 17.4804 28.7439C17.7809 28.5749 18.0327 28.3312 18.2113 28.0362L20.0662 25H27.5C28.0304 25 28.5391 24.7893 28.9142 24.4142C29.2893 24.0391 29.5 23.5304 29.5 23V7C29.5 6.46957 29.2893 5.96086 28.9142 5.58579C28.5391 5.21071 28.0304 5 27.5 5ZM20.5 18H12.5C12.2348 18 11.9804 17.8946 11.7929 17.7071C11.6054 17.5196 11.5 17.2652 11.5 17C11.5 16.7348 11.6054 16.4804 11.7929 16.2929C11.9804 16.1054 12.2348 16 12.5 16H20.5C20.7652 16 21.0196 16.1054 21.2071 16.2929C21.3946 16.4804 21.5 16.7348 21.5 17C21.5 17.2652 21.3946 17.5196 21.2071 17.7071C21.0196 17.8946 20.7652 18 20.5 18ZM20.5 14H12.5C12.2348 14 11.9804 13.8946 11.7929 13.7071C11.6054 13.5196 11.5 13.2652 11.5 13C11.5 12.7348 11.6054 12.4804 11.7929 12.2929C11.9804 12.1054 12.2348 12 12.5 12H20.5C20.7652 12 21.0196 12.1054 21.2071 12.2929C21.3946 12.4804 21.5 12.7348 21.5 13C21.5 13.2652 21.3946 13.5196 21.2071 13.7071C21.0196 13.8946 20.7652 14 20.5 14Z" fill="black"/>
</svg>
