<svg width="33" height="32" viewBox="0 0 33 32" fill="none" xmlns="http://www.w3.org/2000/svg">
<g clip-path="url(#clip0_3_16)">
<path d="M18.5 10C18.5 9.73478 18.6054 9.48043 18.7929 9.29289C18.9804 9.10536 19.2348 9 19.5 9H31.5C31.7652 9 32.0196 9.10536 32.2071 9.29289C32.3946 9.48043 32.5 9.73478 32.5 10C32.5 10.2652 32.3946 10.5196 32.2071 10.7071C32.0196 10.8946 31.7652 11 31.5 11H19.5C19.2348 11 18.9804 10.8946 18.7929 10.7071C18.6054 10.5196 18.5 10.2652 18.5 10ZM31.5 15H19.5C19.2348 15 18.9804 15.1054 18.7929 15.2929C18.6054 15.4804 18.5 15.7348 18.5 16C18.5 16.2652 18.6054 16.5196 18.7929 16.7071C18.9804 16.8946 19.2348 17 19.5 17H31.5C31.7652 17 32.0196 16.8946 32.2071 16.7071C32.3946 16.5196 32.5 16.2652 32.5 16C32.5 15.7348 32.3946 15.4804 32.2071 15.2929C32.0196 15.1054 31.7652 15 31.5 15ZM31.5 21H22.5C22.2348 21 21.9804 21.1054 21.7929 21.2929C21.6054 21.4804 21.5 21.7348 21.5 22C21.5 22.2652 21.6054 22.5196 21.7929 22.7071C21.9804 22.8946 22.2348 23 22.5 23H31.5C31.7652 23 32.0196 22.8946 32.2071 22.7071C32.3946 22.5196 32.5 22.2652 32.5 22C32.5 21.7348 32.3946 21.4804 32.2071 21.2929C32.0196 21.1054 31.7652 21 31.5 21ZM14.1613 17.75C15.1537 16.9856 15.882 15.9297 16.244 14.7304C16.606 13.5311 16.5836 12.2486 16.1798 11.0627C15.7761 9.87686 15.0112 8.8471 13.9926 8.11788C12.974 7.38866 11.7527 6.99655 10.5 6.99655C9.24728 6.99655 8.02597 7.38866 7.00736 8.11788C5.98875 8.8471 5.22394 9.87686 4.82018 11.0627C4.41642 12.2486 4.39397 13.5311 4.75598 14.7304C5.11799 15.9297 5.84629 16.9856 6.83875 17.75C4.26125 18.8412 2.23 21.0375 1.53125 23.75C1.49309 23.8978 1.48927 24.0524 1.52009 24.2019C1.55092 24.3514 1.61557 24.4919 1.70908 24.6126C1.8026 24.7332 1.9225 24.8309 2.05959 24.898C2.19669 24.9652 2.34734 25.0001 2.5 25H18.5C18.6527 25.0001 18.8033 24.9652 18.9404 24.898C19.0775 24.8309 19.1974 24.7332 19.2909 24.6126C19.3844 24.4919 19.4491 24.3514 19.4799 24.2019C19.5107 24.0524 19.5069 23.8978 19.4688 23.75C18.77 21.0363 16.7388 18.84 14.1613 17.75Z" fill="black"/>
</g>
<defs>
<clipPath id="clip0_3_16">
<rect width="32" height="32" fill="white" transform="translate(0.5)"/>
</clipPath>
</defs>
</svg>
