<svg width="33" height="32" viewBox="0 0 33 32" fill="none" xmlns="http://www.w3.org/2000/svg">
<path d="M16.5 3C13.9288 3 11.4154 3.76244 9.27759 5.1909C7.13975 6.61935 5.4735 8.64968 4.48956 11.0251C3.50563 13.4006 3.24818 16.0144 3.74979 18.5362C4.2514 21.0579 5.48953 23.3743 7.30761 25.1924C9.12569 27.0105 11.4421 28.2486 13.9638 28.7502C16.4856 29.2518 19.0994 28.9944 21.4749 28.0104C23.8503 27.0265 25.8806 25.3603 27.3091 23.2224C28.7376 21.0846 29.5 18.5712 29.5 16C29.4964 12.5533 28.1256 9.24882 25.6884 6.81163C23.2512 4.37445 19.9467 3.00364 16.5 3ZM16.5 24C16.2033 24 15.9133 23.912 15.6666 23.7472C15.42 23.5824 15.2277 23.3481 15.1142 23.074C15.0006 22.7999 14.9709 22.4983 15.0288 22.2074C15.0867 21.9164 15.2296 21.6491 15.4393 21.4393C15.6491 21.2296 15.9164 21.0867 16.2074 21.0288C16.4983 20.9709 16.7999 21.0007 17.074 21.1142C17.3481 21.2277 17.5824 21.42 17.7472 21.6666C17.912 21.9133 18 22.2033 18 22.5C18 22.8978 17.842 23.2794 17.5607 23.5607C17.2794 23.842 16.8978 24 16.5 24ZM17.5 17.91V18C17.5 18.2652 17.3946 18.5196 17.2071 18.7071C17.0196 18.8946 16.7652 19 16.5 19C16.2348 19 15.9804 18.8946 15.7929 18.7071C15.6054 18.5196 15.5 18.2652 15.5 18V17C15.5 16.7348 15.6054 16.4804 15.7929 16.2929C15.9804 16.1054 16.2348 16 16.5 16C18.1537 16 19.5 14.875 19.5 13.5C19.5 12.125 18.1537 11 16.5 11C14.8462 11 13.5 12.125 13.5 13.5V14C13.5 14.2652 13.3946 14.5196 13.2071 14.7071C13.0196 14.8946 12.7652 15 12.5 15C12.2348 15 11.9804 14.8946 11.7929 14.7071C11.6054 14.5196 11.5 14.2652 11.5 14V13.5C11.5 11.0187 13.7425 9 16.5 9C19.2575 9 21.5 11.0187 21.5 13.5C21.5 15.6725 19.78 17.4912 17.5 17.91Z" fill="black"/>
</svg>
