<svg width="33" height="32" viewBox="0 0 33 32" fill="none" xmlns="http://www.w3.org/2000/svg">
<path d="M26.5 5H6.5C5.96957 5 5.46086 5.21071 5.08579 5.58579C4.71071 5.96086 4.5 6.46957 4.5 7V14.3462C4.5 25.5487 13.9775 29.2637 15.875 29.8937C16.2801 30.0324 16.7199 30.0324 17.125 29.8937C19.025 29.2625 28.5 25.5475 28.5 14.345V7C28.5 6.46957 28.2893 5.96086 27.9142 5.58579C27.5391 5.21071 27.0304 5 26.5 5ZM15.5 12C15.5 11.7348 15.6054 11.4804 15.7929 11.2929C15.9804 11.1054 16.2348 11 16.5 11C16.7652 11 17.0196 11.1054 17.2071 11.2929C17.3946 11.4804 17.5 11.7348 17.5 12V17C17.5 17.2652 17.3946 17.5196 17.2071 17.7071C17.0196 17.8946 16.7652 18 16.5 18C16.2348 18 15.9804 17.8946 15.7929 17.7071C15.6054 17.5196 15.5 17.2652 15.5 17V12ZM16.5 23C16.2033 23 15.9133 22.912 15.6666 22.7472C15.42 22.5824 15.2277 22.3481 15.1142 22.074C15.0006 21.7999 14.9709 21.4983 15.0288 21.2074C15.0867 20.9164 15.2296 20.6491 15.4393 20.4393C15.6491 20.2296 15.9164 20.0867 16.2074 20.0288C16.4983 19.9709 16.7999 20.0007 17.074 20.1142C17.3481 20.2277 17.5824 20.42 17.7472 20.6666C17.912 20.9133 18 21.2033 18 21.5C18 21.8978 17.842 22.2794 17.5607 22.5607C17.2794 22.842 16.8978 23 16.5 23Z" fill="black"/>
</svg>
