<svg width="33" height="33" viewBox="0 0 33 33" fill="none" xmlns="http://www.w3.org/2000/svg">
<path d="M22.3458 17.1262H25.2883C25.0587 19.1535 24.1482 21.0431 22.7054 22.4858C21.2627 23.9285 19.3732 24.8391 17.3458 25.0687V22.1262C17.3458 21.8609 17.2404 21.6066 17.0529 21.4191C16.8653 21.2315 16.611 21.1262 16.3458 21.1262C16.0806 21.1262 15.8262 21.2315 15.6387 21.4191C15.4511 21.6066 15.3458 21.8609 15.3458 22.1262V25.0687C13.3184 24.8391 11.4289 23.9285 9.98612 22.4858C8.54338 21.0431 7.6328 19.1535 7.40327 17.1262H10.3458C10.611 17.1262 10.8653 17.0208 11.0529 16.8333C11.2404 16.6457 11.3458 16.3914 11.3458 16.1262C11.3458 15.8609 11.2404 15.6066 11.0529 15.4191C10.8653 15.2315 10.611 15.1262 10.3458 15.1262H7.40327C7.6328 13.0988 8.54338 11.2092 9.98612 9.76651C11.4289 8.32377 13.3184 7.41319 15.3458 7.18366V10.1262C15.3458 10.3914 15.4511 10.6457 15.6387 10.8333C15.8262 11.0208 16.0806 11.1262 16.3458 11.1262C16.611 11.1262 16.8653 11.0208 17.0529 10.8333C17.2404 10.6457 17.3458 10.3914 17.3458 10.1262V7.18366C19.3732 7.41319 21.2627 8.32377 22.7054 9.76651C24.1482 11.2092 25.0587 13.0988 25.2883 15.1262H22.3458C22.0806 15.1262 21.8262 15.2315 21.6387 15.4191C21.4511 15.6066 21.3458 15.8609 21.3458 16.1262C21.3458 16.3914 21.4511 16.6457 21.6387 16.8333C21.8262 17.0208 22.0806 17.1262 22.3458 17.1262ZM29.3458 16.1262C29.3458 18.6973 28.5833 21.2107 27.1549 23.3486C25.7264 25.4864 23.6961 27.1527 21.3207 28.1366C18.9452 29.1205 16.3313 29.378 13.8096 28.8764C11.2878 28.3748 8.97146 27.1366 7.15338 25.3185C5.3353 23.5005 4.09717 21.1841 3.59556 18.6623C3.09395 16.1406 3.3514 13.5267 4.33534 11.1513C5.31928 8.77584 6.98552 6.74551 9.12336 5.31705C11.2612 3.8886 13.7746 3.12616 16.3458 3.12616C19.7925 3.1298 23.097 4.50061 25.5341 6.93779C27.9713 9.37498 29.3421 12.6795 29.3458 16.1262ZM27.3458 16.1262C27.3458 13.9506 26.7006 11.8238 25.4919 10.0149C24.2832 8.20595 22.5653 6.79605 20.5553 5.96348C18.5453 5.13092 16.3336 4.91308 14.1998 5.33752C12.066 5.76196 10.106 6.80961 8.5676 8.34799C7.02922 9.88636 5.98157 11.8464 5.55713 13.9802C5.13269 16.114 5.35053 18.3257 6.18309 20.3357C7.01566 22.3457 8.42556 24.0636 10.2345 25.2723C12.0434 26.481 14.1702 27.1262 16.3458 27.1262C19.2621 27.1229 22.0581 25.9629 24.1203 23.9007C26.1825 21.8385 27.3425 19.0425 27.3458 16.1262Z" fill="black"/>
</svg>
