<svg width="33" height="32" viewBox="0 0 33 32" fill="none" xmlns="http://www.w3.org/2000/svg">
<path d="M20.5 16.2362L22.3825 20H18.6175L19.4125 18.4125L20.5 16.2362ZM28.5 6V26C28.5 26.5304 28.2893 27.0391 27.9142 27.4142C27.5391 27.7893 27.0304 28 26.5 28H6.5C5.96957 28 5.46086 27.7893 5.08579 27.4142C4.71071 27.0391 4.5 26.5304 4.5 26V6C4.5 5.46957 4.71071 4.96086 5.08579 4.58579C5.46086 4.21071 5.96957 4 6.5 4H26.5C27.0304 4 27.5391 4.21071 27.9142 4.58579C28.2893 4.96086 28.5 5.46957 28.5 6ZM26.395 23.5525L21.395 13.5525C21.3121 13.3861 21.1844 13.2461 21.0263 13.1483C20.8682 13.0504 20.6859 12.9986 20.5 12.9986C20.3141 12.9986 20.1318 13.0504 19.9737 13.1483C19.8156 13.2461 19.6879 13.3861 19.605 13.5525L17.9575 16.85C16.8977 16.6424 15.8927 16.2168 15.0063 15.6C16.3879 14.0358 17.2428 12.0767 17.45 10H19.5C19.7652 10 20.0196 9.89464 20.2071 9.70711C20.3946 9.51957 20.5 9.26522 20.5 9C20.5 8.73478 20.3946 8.48043 20.2071 8.29289C20.0196 8.10536 19.7652 8 19.5 8H14.5V7C14.5 6.73478 14.3946 6.48043 14.2071 6.29289C14.0196 6.10536 13.7652 6 13.5 6C13.2348 6 12.9804 6.10536 12.7929 6.29289C12.6054 6.48043 12.5 6.73478 12.5 7V8H7.5C7.23478 8 6.98043 8.10536 6.79289 8.29289C6.60536 8.48043 6.5 8.73478 6.5 9C6.5 9.26522 6.60536 9.51957 6.79289 9.70711C6.98043 9.89464 7.23478 10 7.5 10H15.435C15.2366 11.5778 14.5705 13.0602 13.5225 14.2563C13.0785 13.7379 12.7006 13.1665 12.3975 12.555C12.2747 12.326 12.0675 12.1538 11.8199 12.0748C11.5723 11.9959 11.3037 12.0165 11.071 12.1322C10.8383 12.2479 10.6598 12.4496 10.5733 12.6947C10.4867 12.9397 10.499 13.2088 10.6075 13.445C10.9902 14.2168 11.469 14.9371 12.0325 15.5887C10.7006 16.5096 9.11928 17.002 7.5 17C7.23478 17 6.98043 17.1054 6.79289 17.2929C6.60536 17.4804 6.5 17.7348 6.5 18C6.5 18.2652 6.60536 18.5196 6.79289 18.7071C6.98043 18.8946 7.23478 19 7.5 19C9.67092 19.0023 11.783 18.2942 13.5138 16.9837C14.561 17.7842 15.7591 18.365 17.0362 18.6912L14.605 23.5525C14.4863 23.7899 14.4668 24.0647 14.5507 24.3164C14.6346 24.5682 14.8151 24.7763 15.0525 24.895C15.2899 25.0137 15.5647 25.0332 15.8164 24.9493C16.0682 24.8654 16.2763 24.6849 16.395 24.4475L17.6175 22H23.3825L24.605 24.4475C24.6638 24.565 24.7451 24.6698 24.8444 24.7559C24.9437 24.842 25.0589 24.9077 25.1836 24.9493C25.3082 24.9908 25.4399 25.0074 25.5709 24.9981C25.702 24.9888 25.83 24.9538 25.9475 24.895C26.065 24.8362 26.1698 24.7549 26.2559 24.6556C26.342 24.5563 26.4077 24.4411 26.4493 24.3164C26.4908 24.1918 26.5074 24.0601 26.4981 23.9291C26.4888 23.798 26.4538 23.67 26.395 23.5525Z" fill="black"/>
</svg>
