<svg width="299" height="180" viewBox="0 0 299 180" fill="none" xmlns="http://www.w3.org/2000/svg">
<path opacity="0.5" d="M233.112 84C233.112 129.839 195.928 167 150.056 167C104.185 167 67 129.839 67 84C67 38.161 104.185 1 150.056 1C195.928 1 233.112 38.161 233.112 84Z" stroke="#4F058D" stroke-opacity="0.5" stroke-width="2"/>
<g filter="url(#filter0_dd_30_19)">
<path d="M150.056 143.414C182.892 143.414 209.51 116.813 209.51 83.9996C209.51 51.1858 182.892 24.585 150.056 24.585C117.22 24.585 90.6016 51.1858 90.6016 83.9996C90.6016 116.813 117.22 143.414 150.056 143.414Z" fill="white"/>
</g>
<path d="M169.725 83.0521V97.4649C169.555 103.546 160.582 103.596 160.384 97.465V83.0521C160.384 81.8252 160.876 80.6485 161.752 79.781C162.628 78.9134 163.816 78.426 165.054 78.426C166.293 78.426 167.481 78.9134 168.357 79.781C169.233 80.6485 169.725 81.8252 169.725 83.0521ZM150.5 55C143.474 55.0081 136.738 57.7764 131.77 62.6975C126.802 67.6187 124.008 74.2909 124 81.2505V95.867C124.002 96.0983 124.083 96.322 124.231 96.5014C124.378 96.6808 124.583 96.8052 124.811 96.8543L127.637 97.4752L129.24 97.8314C129.223 97.7101 129.216 97.5875 129.219 97.465V83.0521C129.219 82.93 129.219 82.8079 129.23 82.6857L126.055 83.388C125.022 69.3252 136.143 56.9707 150.5 57.0358C164.854 56.9722 175.978 69.324 174.944 83.3881L171.769 82.6857C171.78 82.818 171.78 82.93 171.78 83.0521V97.465C171.78 97.5871 171.78 97.7195 171.769 97.8314L176.188 96.8543C176.416 96.8052 176.621 96.6808 176.768 96.5014C176.916 96.322 176.997 96.0983 177 95.867V81.2505C176.991 74.2909 174.197 67.6187 169.229 62.6975C164.261 57.7764 157.525 55.0081 150.5 55ZM135.95 102.086C137.187 102.085 138.373 101.598 139.247 100.732C140.122 99.8653 140.614 98.6903 140.615 97.465V83.0521C140.417 76.9216 131.444 76.9712 131.274 83.0522V97.465C131.277 98.6916 131.77 99.8672 132.647 100.734C133.524 101.6 134.711 102.086 135.95 102.086ZM132.302 107.257C131.959 107.257 131.62 107.191 131.303 107.061C130.986 106.931 130.698 106.741 130.456 106.5C130.213 106.26 130.021 105.975 129.89 105.661C129.759 105.347 129.692 105.011 129.692 104.671V99.9282C129.672 99.7073 129.119 99.9665 128.788 99.8161L127.637 99.5618V104.671C127.638 105.897 128.13 107.072 129.004 107.938C129.879 108.805 131.065 109.292 132.302 109.293H142.053C141.93 108.619 141.93 107.93 142.053 107.257H132.302ZM153.233 104.559H147.766C146.77 104.559 145.815 104.951 145.111 105.649C144.406 106.347 144.011 107.293 144.011 108.28C144.011 109.266 144.406 110.213 145.111 110.91C145.815 111.608 146.77 112 147.766 112H153.233C154.22 111.987 155.163 111.59 155.857 110.894C156.551 110.197 156.941 109.258 156.941 108.28C156.941 107.301 156.551 106.362 155.857 105.666C155.163 104.969 154.22 104.572 153.233 104.559Z" fill="#4F058D"/>
<path d="M283.61 119.99C283.828 118.924 285.351 118.924 285.569 119.99L286.902 126.509C286.983 126.902 287.289 127.208 287.682 127.289L294.202 128.62C295.269 128.838 295.269 130.362 294.202 130.58L287.682 131.912C287.289 131.992 286.983 132.299 286.902 132.691L285.569 139.21C285.351 140.276 283.828 140.276 283.61 139.21L282.276 132.691C282.196 132.299 281.889 131.992 281.497 131.912L274.976 130.58C273.91 130.362 273.91 128.838 274.976 128.62L281.497 127.289C281.889 127.208 282.196 126.902 282.276 126.509L283.61 119.99Z" fill="#4F058D"/>
<path opacity="0.2" d="M39.8486 160.79C40.0667 159.724 41.59 159.724 41.8081 160.79L42.7338 165.316C42.8141 165.709 43.1209 166.016 43.5134 166.096L48.0396 167.02C49.1061 167.238 49.1061 168.762 48.0396 168.98L43.5134 169.904C43.1209 169.984 42.8141 170.291 42.7338 170.684L41.8081 175.21C41.59 176.276 40.0667 176.276 39.8486 175.21L38.9229 170.684C38.8426 170.291 38.5358 169.984 38.1433 169.904L33.6171 168.98C32.5506 168.762 32.5506 167.238 33.6171 167.02L38.1433 166.096C38.5358 166.016 38.8426 165.709 38.9229 165.316L39.8486 160.79Z" fill="#4F058D"/>
<path opacity="0.2" d="M258.394 19.1905C258.612 18.1244 260.135 18.1244 260.353 19.1905L261.279 23.7167C261.359 24.1092 261.666 24.4159 262.058 24.4961L266.585 25.4206C267.651 25.6385 267.651 27.1623 266.585 27.3802L262.058 28.3047C261.666 28.3848 261.359 28.6915 261.279 29.084L260.353 33.6103C260.135 34.6764 258.612 34.6764 258.394 33.6103L257.468 29.084C257.388 28.6915 257.081 28.3848 256.688 28.3047L252.162 27.3802C251.096 27.1623 251.096 25.6385 252.162 25.4206L256.688 24.4961C257.081 24.4159 257.388 24.1092 257.468 23.7167L258.394 19.1905Z" fill="#4F058D"/>
<path d="M18.2331 21.5899C18.4512 20.5238 19.9745 20.5238 20.1926 21.5899L22.341 32.0943C22.4213 32.4868 22.7281 32.7935 23.1206 32.8737L33.6289 35.02C34.6954 35.2379 34.6954 36.7617 33.6289 36.9796L23.1206 39.126C22.7281 39.2061 22.4213 39.5128 22.341 39.9053L20.1926 50.4097C19.9745 51.4758 18.4512 51.4758 18.2331 50.4097L16.0847 39.9053C16.0044 39.5128 15.6976 39.2061 15.3051 39.126L4.79677 36.9796C3.73026 36.7617 3.73026 35.2379 4.79676 35.02L15.3051 32.8737C15.6976 32.7935 16.0044 32.4868 16.0847 32.0943L18.2331 21.5899Z" fill="#4F058D"/>
<defs>
<filter id="filter0_dd_30_19" x="74.6016" y="16.585" width="150.909" height="150.829" filterUnits="userSpaceOnUse" color-interpolation-filters="sRGB">
<feFlood flood-opacity="0" result="BackgroundImageFix"/>
<feColorMatrix in="SourceAlpha" type="matrix" values="0 0 0 0 0 0 0 0 0 0 0 0 0 0 0 0 0 0 127 0" result="hardAlpha"/>
<feOffset dy="8"/>
<feGaussianBlur stdDeviation="8"/>
<feColorMatrix type="matrix" values="0 0 0 0 0.2 0 0 0 0 0.223529 0 0 0 0 0.294118 0 0 0 0.1 0"/>
<feBlend mode="normal" in2="BackgroundImageFix" result="effect1_dropShadow_30_19"/>
<feColorMatrix in="SourceAlpha" type="matrix" values="0 0 0 0 0 0 0 0 0 0 0 0 0 0 0 0 0 0 127 0" result="hardAlpha"/>
<feOffset dy="2"/>
<feGaussianBlur stdDeviation="2"/>
<feColorMatrix type="matrix" values="0 0 0 0 0.20092 0 0 0 0 0.221801 0 0 0 0 0.295833 0 0 0 0.06 0"/>
<feBlend mode="normal" in2="effect1_dropShadow_30_19" result="effect2_dropShadow_30_19"/>
<feBlend mode="normal" in="SourceGraphic" in2="effect2_dropShadow_30_19" result="shape"/>
</filter>
</defs>
</svg>
