<svg width="224" height="247" viewBox="0 0 224 247" fill="none" xmlns="http://www.w3.org/2000/svg">
<path d="M112 240C173.854 240 224 190.119 224 128.372C224 66.6251 173.633 16.7441 112 16.7441C50.146 16.7441 0 66.6251 0 128.372C0 190.119 50.146 240 112 240Z" fill="#EAEEF9"/>
<path d="M101.472 112.216C88.0572 101.522 81.0303 83.3257 83.5855 66.4067C86.4602 47.0935 99.8752 43.4224 107.222 46.6147C112.172 48.8493 115.207 55.553 112.651 60.6607C108.02 69.7586 89.6542 65.7683 86.1408 50.605C84.8632 45.0186 86.1408 38.7937 89.4945 34.3245C95.0841 26.6631 105.305 24.1092 114.568 22.5131C116.644 22.1939 118.72 21.8747 120.956 21.5554C125.907 20.917 131.975 20.1189 138.683 19.4805" stroke="#84A1FF" stroke-width="2" stroke-miterlimit="10" stroke-linecap="round" stroke-linejoin="round"/>
<path d="M152.098 22.5131L146.029 25.3862C144.911 25.865 143.794 25.0669 143.794 23.79L144.911 11.6594" fill="#667FFF"/>
<path d="M207.834 4.47675L203.842 6.71134L162 30.3341C160.083 31.4514 157.688 30.8129 156.41 29.0572L146.828 14.8516L144.911 11.9786L139.641 3.99791C138.523 2.24217 139.801 -0.152031 141.877 0.00758226L200.328 4.15752L207.834 4.47675Z" fill="#84A1FF"/>
<path d="M207.834 4.47689L203.842 6.71147L146.988 14.6921L144.911 11.8191L200.488 3.99805L207.834 4.47689Z" fill="#667FFF"/>
<g filter="url(#filter0_d_668_10138)">
<path d="M177.995 82.5874L179.528 205.575C179.528 209.777 176.079 213.023 171.863 213.023H51.5312C47.3157 213.023 43.8667 209.586 43.8667 205.575V47.448C43.8667 43.2466 47.3157 40 51.5312 40H138.714L177.995 82.5874Z" fill="url(#paint0_linear_668_10138)"/>
</g>
<path d="M102.5 188.387H98.0928C97.1347 188.387 96.3683 187.433 96.3683 186.287C96.3683 185.141 97.1347 184.186 98.0928 184.186H102.5C103.458 184.186 104.224 185.141 104.224 186.287C104.224 187.624 103.458 188.387 102.5 188.387Z" fill="#CED7E2"/>
<path d="M89.0869 188.387H63.411C62.453 188.387 61.6865 187.433 61.6865 186.287C61.6865 185.141 62.453 184.186 63.411 184.186H89.0869C90.045 184.186 90.8114 185.141 90.8114 186.287C90.8114 187.624 90.045 188.387 89.0869 188.387Z" fill="#D5DDEA"/>
<path d="M121.852 65.782H64.1775C62.8362 65.782 61.6865 64.6361 61.6865 63.2993C61.6865 61.9625 62.8362 60.8167 64.1775 60.8167H121.852C123.194 60.8167 124.343 61.9625 124.343 63.2993C124.343 64.6361 123.194 65.782 121.852 65.782Z" fill="#D5DDEA"/>
<path d="M86.4044 79.532H64.1775C62.8362 79.532 61.6865 78.3861 61.6865 77.0493C61.6865 75.7125 62.8362 74.5667 64.1775 74.5667H86.2128C87.5541 74.5667 88.7037 75.7125 88.7037 77.0493C88.7037 78.3861 87.5541 79.532 86.4044 79.532Z" fill="#D5DDEA"/>
<path d="M138.714 40V73.9935C138.714 78.7679 142.93 82.5874 147.72 82.5874H177.995" fill="#D5DDEA"/>
<path d="M190.245 214.902C188.329 214.902 186.413 214.138 184.88 212.419L152.881 180.527L151.732 181.29C141.385 188.929 129.313 192.94 117.05 192.94C102.296 192.94 87.5417 187.02 76.6199 176.707C65.1232 165.822 58.8 151.116 58.8 135.075C58.8 103.182 84.8592 77.2092 116.858 77.2092C138.702 77.2092 157.863 88.6677 168.21 108.147C178.366 127.436 177.024 149.971 164.569 168.113L163.803 169.259L195.994 201.343C199.251 204.589 198.485 207.836 197.91 209.555C196.377 212.61 193.311 214.902 190.245 214.902ZM116.858 93.0601C93.4817 93.0601 74.7038 111.967 74.7038 135.075C74.7038 161.429 96.3559 177.28 117.433 177.28C130.271 177.28 141.959 171.551 150.199 161.238C160.354 148.634 162.079 131.637 154.989 116.932C147.708 102.227 133.145 93.0601 116.858 93.0601Z" fill="#989FB0"/>
<path d="M98.6552 141.95C101.146 141.95 103.254 139.849 103.254 137.366C103.254 134.884 101.146 132.783 98.6552 132.783C96.1642 132.783 94.0565 134.884 94.0565 137.366C94.0565 139.849 96.1642 141.95 98.6552 141.95Z" fill="#989FB0"/>
<path d="M133.912 141.95C136.403 141.95 138.51 139.849 138.51 137.366C138.51 134.884 136.403 132.783 133.912 132.783C131.421 132.783 129.313 134.884 129.313 137.366C129.313 140.04 131.421 141.95 133.912 141.95Z" fill="#989FB0"/>
<path d="M98.4754 122.202L88.3595 127.646L89.725 130.167L99.841 124.723L98.4754 122.202Z" fill="#989FB0"/>
<path d="M133.286 122.13L131.921 124.651L142.038 130.094L143.403 127.573L133.286 122.13Z" fill="#989FB0"/>
<path d="M116.283 152.644C119.247 152.644 121.649 150.849 121.649 148.634C121.649 146.419 119.247 144.623 116.283 144.623C113.32 144.623 110.918 146.419 110.918 148.634C110.918 150.849 113.32 152.644 116.283 152.644Z" fill="#989FB0"/>
<defs>
<filter id="filter0_d_668_10138" x="21.8667" y="29" width="179.661" height="217.023" filterUnits="userSpaceOnUse" color-interpolation-filters="sRGB">
<feFlood flood-opacity="0" result="BackgroundImageFix"/>
<feColorMatrix in="SourceAlpha" type="matrix" values="0 0 0 0 0 0 0 0 0 0 0 0 0 0 0 0 0 0 127 0" result="hardAlpha"/>
<feOffset dy="11"/>
<feGaussianBlur stdDeviation="11"/>
<feColorMatrix type="matrix" values="0 0 0 0 0.397708 0 0 0 0 0.47749 0 0 0 0 0.575 0 0 0 0.27 0"/>
<feBlend mode="normal" in2="BackgroundImageFix" result="effect1_dropShadow_668_10138"/>
<feBlend mode="normal" in="SourceGraphic" in2="effect1_dropShadow_668_10138" result="shape"/>
</filter>
<linearGradient id="paint0_linear_668_10138" x1="111.653" y1="35.9978" x2="111.653" y2="214.888" gradientUnits="userSpaceOnUse">
<stop stop-color="#FDFEFF"/>
<stop offset="0.9964" stop-color="#ECF0F5"/>
</linearGradient>
</defs>
</svg>
