<svg width="33" height="33" viewBox="0 0 33 33" fill="none" xmlns="http://www.w3.org/2000/svg">
<path d="M28.6709 19.8647V26.8647C28.6709 27.3951 28.4602 27.9038 28.0851 28.2789C27.71 28.654 27.2013 28.8647 26.6709 28.8647H6.67087C6.14043 28.8647 5.63173 28.654 5.25665 28.2789C4.88158 27.9038 4.67087 27.3951 4.67087 26.8647V19.8647C4.67087 19.5995 4.77622 19.3451 4.96376 19.1576C5.1513 18.97 5.40565 18.8647 5.67087 18.8647C5.93608 18.8647 6.19044 18.97 6.37797 19.1576C6.56551 19.3451 6.67087 19.5995 6.67087 19.8647V26.8647H26.6709V19.8647C26.6709 19.5995 26.7762 19.3451 26.9638 19.1576C27.1513 18.97 27.4057 18.8647 27.6709 18.8647C27.9361 18.8647 28.1904 18.97 28.378 19.1576C28.5655 19.3451 28.6709 19.5995 28.6709 19.8647ZM15.9634 20.5722C16.0562 20.6652 16.1665 20.7389 16.2879 20.7892C16.4093 20.8396 16.5395 20.8655 16.6709 20.8655C16.8023 20.8655 16.9324 20.8396 17.0538 20.7892C17.1752 20.7389 17.2855 20.6652 17.3784 20.5722L22.3784 15.5722C22.4713 15.4793 22.545 15.369 22.5953 15.2476C22.6455 15.1262 22.6714 14.9961 22.6714 14.8647C22.6714 14.7333 22.6455 14.6032 22.5953 14.4818C22.545 14.3604 22.4713 14.2501 22.3784 14.1572C22.2855 14.0643 22.1752 13.9906 22.0538 13.9403C21.9324 13.89 21.8023 13.8641 21.6709 13.8641C21.5395 13.8641 21.4094 13.89 21.288 13.9403C21.1666 13.9906 21.0563 14.0643 20.9634 14.1572L17.6709 17.4509V5.86469C17.6709 5.59947 17.5655 5.34511 17.378 5.15758C17.1904 4.97004 16.9361 4.86469 16.6709 4.86469C16.4057 4.86469 16.1513 4.97004 15.9638 5.15758C15.7762 5.34511 15.6709 5.59947 15.6709 5.86469V17.4509L12.3784 14.1572C12.1907 13.9695 11.9362 13.8641 11.6709 13.8641C11.4055 13.8641 11.151 13.9695 10.9634 14.1572C10.7757 14.3448 10.6703 14.5993 10.6703 14.8647C10.6703 15.13 10.7757 15.3845 10.9634 15.5722L15.9634 20.5722Z" fill="black"/>
</svg>
